<?xml version="1.0" standalone="no"?>
<!DOCTYPE svg PUBLIC "-//W3C//DTD SVG 20010904//EN"
 "http://www.w3.org/TR/2001/REC-SVG-20010904/DTD/svg10.dtd">
<svg version="1.0" xmlns="http://www.w3.org/2000/svg"
 width="260.000000pt" height="260.000000pt" viewBox="0 0 260.000000 260.000000"
 preserveAspectRatio="xMidYMid meet">
<metadata>
Created by potrace 1.11, written by Peter Selinger 2001-2013
</metadata>
<g transform="translate(0.000000,260.000000) scale(0.100000,-0.100000)"
fill="#000000" stroke="none">
<path d="M1893 2318 l-61 -63 -89 2 -89 2 -1 -112 c-2 -186 -2 -180 -15 -170
-7 5 -28 16 -46 23 -33 13 -34 12 -81 -34 l-48 -47 -44 15 c-112 37 -164 46
-284 50 -421 15 -798 -290 -880 -712 -22 -116 -10 -344 23 -417 5 -11 20 -47
33 -80 105 -273 388 -493 684 -531 445 -57 852 218 969 653 41 155 31 362 -27
519 l-15 41 48 48 c46 46 48 49 36 74 -8 14 -17 36 -20 49 l-7 22 143 0 143 0
-3 89 -3 88 60 61 c34 33 61 63 61 66 0 3 -27 33 -60 66 l-60 60 0 90 0 89
-89 -1 -88 -1 -62 62 c-33 33 -62 61 -64 61 -1 0 -30 -28 -64 -62z"/>
</g>
</svg>
